<svg id="illustration" version="1.1" width="100%" height="100%" viewBox="0 0 766 528.05" xmlns="http://www.w3.org/2000/svg"><defs><style>.cls-1,.cls-14,.cls-15,.cls-16,.cls-17,.cls-18,.cls-21,.cls-22,.cls-4{fill:none;}.cls-2{fill:#eaf9f3;}.cls-3{clip-path:url(#clip-path);}.cls-4{stroke:#b8d8c7;}.cls-14,.cls-15,.cls-16,.cls-17,.cls-18,.cls-21,.cls-22,.cls-4{stroke-linecap:round;stroke-linejoin:round;}.cls-14,.cls-15,.cls-17,.cls-18,.cls-21,.cls-4{stroke-width:1.8px;}.cls-5{fill:#b8d8c7;}.cls-6{fill:#f8ab5d;}.cls-7{fill:#ffe779;}.cls-8{fill:#22272e;}.cls-9{fill:#63737a;}.cls-10{fill:#b0d7c0;}.cls-11{fill:#f4c2c9;}.cls-12{fill:#6dafa7;}.cls-13{fill:#fff;}.cls-14{stroke:#fff;}.cls-15,.cls-16{stroke:#63737a;}.cls-16{stroke-width:1.8px;}.cls-17,.cls-22{stroke:#22272e;}.cls-18{stroke:#e26e85;}.cls-19{fill:#e26e85;}.cls-20{clip-path:url(#clip-path-2);}.cls-21{stroke:#f8ab5d;}.cls-22{stroke-width:1.8px;}</style><clipPath id="clip-path"><path class="cls-1" d="m766.3 546.8-520-14.9a48.07 48.07 0 0 1-46.5-43.3l-25.1-248a48.18 48.18 0 0 1 47.2-53l578.8-8a48.21 48.21 0 0 1 48.5 54.1l-33.7 270.9a48.27 48.27 0 0 1-49.2 42.2z"/></clipPath><clipPath id="clip-path-2"><path class="cls-1" d="m322.9 252.6c2.2-6.5 10.6-10.4 17.4-9.8 7 0.6 20.4 0.8 33.3 4.8 22 6.8 27.3 10.8 28.6 12 7.3 7 6.6 17.4 2.4 46.1-2.7 18.9-5 23.7-4.4 33s2.3 25.8 3.4 29.2-1.7 9.3-4.1 11.4-21.8 6.5-39.8 6.1-46.3-5.3-50.8-8.3-7.7-8.2-6.7-12.7a200.52 200.52 0 0 1 4.8-20.4c2.8-9.5 3-21.9 7.4-41.8 3.4-14.7 3.9-36 8.5-49.6z"/></clipPath></defs><path class="cls-2" d="m654.6 425.36-520-14.9a48.07 48.07 0 0 1-46.5-43.3l-25.1-248a48.18 48.18 0 0 1 47.2-53l578.8-8a48.21 48.21 0 0 1 48.5 54.1l-33.7 270.9a48.27 48.27 0 0 1-49.2 42.2z"/><g class="cls-3" transform="translate(-111.7 -121.44)" clip-path="url(#clip-path)"><path class="cls-4" d="m610.6 558.6 1.8 40.5a15 15 0 0 1-15 15h-415.6a15 15 0 0 1-15-15v-235.7a15 15 0 0 1 15-15h415.5a15 15 0 0 1 15 15v159.4"/><path class="cls-4" d="m703.7 523.8v-232.1a15 15 0 0 1 15-15h124a15 15 0 0 1 15 15v344.3a15 15 0 0 1-15 15h-124a15 15 0 0 1-15-15v-74.9"/><path class="cls-4" d="m259.9 278.1h-89.9v-8.9h89.9a1.79 1.79 0 0 1 1.8 1.8v5.2a1.76 1.76 0 0 1-1.8 1.9z"/><path class="cls-4" d="m246.2 348.4h-20.3a4.32 4.32 0 0 1-4.3-3.8l-1.6-14.4a4.33 4.33 0 0 1 4.3-4.8h23.5a4.34 4.34 0 0 1 4.3 4.8l-1.6 14.4a4.25 4.25 0 0 1-4.3 3.8z"/><path class="cls-5" d="m233.7 325.5s-8-0.8-9.6-11.6c0 0 7.2 2.1 9.5 7.2 0 0 1-11.4 6.4-12.5 0 0 2.4 8.5-1.4 12.7 0 0 2.9-4.8 10.3-4.7a13.6 13.6 0 0 1-9.2 8.8"/><path class="cls-4" d="m792.3 276.7h-20.3a4.32 4.32 0 0 1-4.3-3.8l-1.6-14.4a4.33 4.33 0 0 1 4.3-4.8h23.5a4.34 4.34 0 0 1 4.3 4.8l-1.6 14.4a4.32 4.32 0 0 1-4.3 3.8z"/><path class="cls-5" d="m779.7 253.8s-8-0.8-9.6-11.6c0 0 7.2 2.1 9.5 7.2 0 0 1-11.4 6.4-12.5 0 0 2.4 8.5-1.4 12.7 0 0 2.9-4.8 10.3-4.7a13.6 13.6 0 0 1-9.2 8.8"/><path class="cls-4" d="m594.2 398.1h-90.2a4.23 4.23 0 0 1-4.2-4.2v-27.4a4.23 4.23 0 0 1 4.2-4.2h90.2a4.23 4.23 0 0 1 4.2 4.2v27.4a4.23 4.23 0 0 1-4.2 4.2z"/><path class="cls-5" d="m559.4 372h-20.8a1.54 1.54 0 0 1-1.5-1.5 1.54 1.54 0 0 1 1.5-1.5h20.8a1.54 1.54 0 0 1 1.5 1.5 1.47 1.47 0 0 1-1.5 1.5z"/><path class="cls-4" d="m594.2 444h-90.2a4.23 4.23 0 0 1-4.2-4.2v-27.4a4.23 4.23 0 0 1 4.2-4.2h90.2a4.23 4.23 0 0 1 4.2 4.2v27.4a4.23 4.23 0 0 1-4.2 4.2z"/><path class="cls-5" d="m559.4 417.8h-20.8a1.54 1.54 0 0 1-1.5-1.5 1.54 1.54 0 0 1 1.5-1.5h20.8a1.54 1.54 0 0 1 1.5 1.5 1.47 1.47 0 0 1-1.5 1.5z"/><path class="cls-4" d="m479.2 398.1h-90.2a4.23 4.23 0 0 1-4.2-4.2v-27.4a4.23 4.23 0 0 1 4.2-4.2h90.2a4.23 4.23 0 0 1 4.2 4.2v27.4a4.23 4.23 0 0 1-4.2 4.2z"/><path class="cls-5" d="m444.5 372h-20.8a1.54 1.54 0 0 1-1.5-1.5 1.54 1.54 0 0 1 1.5-1.5h20.8a1.54 1.54 0 0 1 1.5 1.5 1.54 1.54 0 0 1-1.5 1.5z"/><path class="cls-4" d="m479.2 444h-90.2a4.23 4.23 0 0 1-4.2-4.2v-27.4a4.23 4.23 0 0 1 4.2-4.2h90.2a4.23 4.23 0 0 1 4.2 4.2v27.4a4.23 4.23 0 0 1-4.2 4.2z"/><path class="cls-5" d="m444.5 417.8h-20.8a1.54 1.54 0 0 1-1.5-1.5 1.54 1.54 0 0 1 1.5-1.5h20.8a1.54 1.54 0 0 1 1.5 1.5 1.54 1.54 0 0 1-1.5 1.5z"/><path class="cls-4" d="m594.2 488.8h-90.2a4.23 4.23 0 0 1-4.2-4.2v-27.4a4.23 4.23 0 0 1 4.2-4.2h90.2a4.23 4.23 0 0 1 4.2 4.2v27.4a4.23 4.23 0 0 1-4.2 4.2z"/><path class="cls-5" d="m559.4 462.7h-20.8a1.54 1.54 0 0 1-1.5-1.5 1.54 1.54 0 0 1 1.5-1.5h20.8a1.54 1.54 0 0 1 1.5 1.5 1.47 1.47 0 0 1-1.5 1.5z"/><path class="cls-4" d="m479.2 488.8h-90.2a4.23 4.23 0 0 1-4.2-4.2v-27.4a4.23 4.23 0 0 1 4.2-4.2h90.2a4.23 4.23 0 0 1 4.2 4.2v27.4a4.23 4.23 0 0 1-4.2 4.2z"/><path class="cls-5" d="m444.5 462.7h-20.8a1.54 1.54 0 0 1-1.5-1.5 1.54 1.54 0 0 1 1.5-1.5h20.8a1.54 1.54 0 0 1 1.5 1.5 1.54 1.54 0 0 1-1.5 1.5z"/><path class="cls-4" d="m884.9 381.5h-159.9a4.65 4.65 0 0 1-4.6-4.6v-79.7a4.65 4.65 0 0 1 4.6-4.6h159.9a4.65 4.65 0 0 1 4.6 4.6v79.7a4.53 4.53 0 0 1-4.6 4.6z"/><path class="cls-4" d="m884.9 480.5h-159.9a4.65 4.65 0 0 1-4.6-4.6v-79.7a4.65 4.65 0 0 1 4.6-4.6h159.9a4.65 4.65 0 0 1 4.6 4.6v79.7a4.59 4.59 0 0 1-4.6 4.6z"/><rect class="cls-4" x="751.1" y="331.2" width="9.9" height="50.3"/><rect class="cls-4" x="760.9" y="345" width="10.3" height="36.6"/><rect class="cls-4" x="213.8" y="218.9" width="9.9" height="50.3"/><rect class="cls-4" x="223.6" y="232.6" width="10.3" height="36.6"/><rect class="cls-4" x="193.6" y="239.8" width="9.9" height="29.4"/><rect class="cls-4" x="203.5" y="210.3" width="10.3" height="58.8"/><path class="cls-5" d="m754.8 436.8 1.1-14.9a1.65 1.65 0 0 0-1.7-1.8h-8.5a1.71 1.71 0 0 0-1.7 1.8l1.1 14.9s-9 5.8-8.9 10.6c0.1 3.7 2.3 21.4 3.3 29.2a4.32 4.32 0 0 0 4.3 3.8h12.4a4.32 4.32 0 0 0 4.3-3.8c1-7.8 3.2-25.5 3.3-29.2 0-4.8-9-10.6-9-10.6z"/><path class="cls-5" d="m803 337.9 1.1-14.9a1.65 1.65 0 0 0-1.7-1.8h-8.6a1.71 1.71 0 0 0-1.7 1.8l1.1 14.9s-9 5.8-8.9 10.6c0.1 3.7 2.3 21.4 3.3 29.2a4.32 4.32 0 0 0 4.3 3.8h12.4a4.32 4.32 0 0 0 4.3-3.8c1-7.8 3.2-25.5 3.3-29.2 0.1-4.8-8.9-10.6-8.9-10.6z"/><line class="cls-4" x1="180.4" x2="883.4" y1="518.1" y2="525.8"/></g><path class="cls-6" d="m438.8 40.765c-3.9 8.3-12.9 13.8-19.2 12.1-5.5-1.5-6.5-8-3-14.5 3.4-6.2 10.2-11.2 16.1-11.3 6.5-0.2 9.7 5.8 6.1 13.7z"/><path class="cls-7" d="m436.9 39.065c-3.9 8.3-12.9 13.8-19.2 12.1-5.5-1.5-6.5-8-3-14.5 3.4-6.2 10.2-11.2 16.1-11.3 6.5-0.2 9.7 5.8 6.1 13.7z"/><path class="cls-6" d="m433.7 38.665c-2.9 6.2-9.7 10.4-14.5 9.3-4.3-1-5.3-6-2.6-11.1 2.6-4.9 8.1-8.8 12.6-8.8 5.1 0.1 7.3 4.7 4.5 10.6z"/><path class="cls-7" d="m420.7 43.965 0.4-0.7c0.1-0.3 0.1-0.5-0.1-0.6a1.77 1.77 0 0 1-1.1-0.7c-0.1-0.1-0.1-0.4 0.1-0.7l0.1-0.1c0.2-0.3 0.6-0.4 0.7-0.2a2.33 2.33 0 0 0 1.3 0.7 2.36 2.36 0 0 0 2.5-1.4 1.55 1.55 0 0 0-0.6-2.2 2.05 2.05 0 0 1-0.8-3 4.13 4.13 0 0 1 3-2.3c0.2 0 0.4-0.2 0.6-0.5l0.4-0.7a0.75 0.75 0 0 1 0.7-0.5c0.2 0 0.3 0.2 0.2 0.5l-0.3 0.6c-0.1 0.3-0.1 0.5 0.2 0.5a1.88 1.88 0 0 1 0.9 0.4c0.2 0.1 0.1 0.4-0.1 0.7l-0.1 0.1c-0.2 0.3-0.6 0.4-0.7 0.2a1.9 1.9 0 0 0-1.2-0.4 2.27 2.27 0 0 0-2.2 1.3c-0.4 0.8-0.1 1.3 0.8 2a2.26 2.26 0 0 1 0.7 3.3 4.45 4.45 0 0 1-3.4 2.5 0.74 0.74 0 0 0-0.6 0.5l-0.4 0.8a0.87 0.87 0 0 1-0.7 0.5c-0.4 0-0.5-0.3-0.3-0.6z"/><path class="cls-8" d="m621.1 219.46-38.8-2.4a4.83 4.83 0 0 1-4.5-5.2l5.9-79.6a5.58 5.58 0 0 1 5.2-5.1l39.7-2.4a4.86 4.86 0 0 1 5.1 5.2l-6.6 84.4a5.71 5.71 0 0 1-6 5.1z"/><path class="cls-8" d="m618.4 219.46-38.8-2.4a4.83 4.83 0 0 1-4.5-5.2l5.9-79.6a5.58 5.58 0 0 1 5.2-5.1l39.7-2.4a4.86 4.86 0 0 1 5.1 5.2l-6.6 84.4a5.71 5.71 0 0 1-6 5.1z"/><path class="cls-9" d="m606.5 134.06-7.4 0.4a0.94 0.94 0 0 1-1-1 1.11 1.11 0 0 1 1.1-1.1l7.4-0.4a0.94 0.94 0 0 1 1 1 1.11 1.11 0 0 1-1.1 1.1z"/><path class="cls-9" d="m610.8 133.86h-0.2a0.94 0.94 0 0 1-1-1 1.38 1.38 0 0 1 1.2-1.2h0.2a0.94 0.94 0 0 1 1 1 1.38 1.38 0 0 1-1.2 1.2z"/><path class="cls-9" d="m599.2 147.36-9.9 0.3a1.69 1.69 0 0 1-1.7-1.9 2.24 2.24 0 0 1 2-2l9.9-0.4a1.69 1.69 0 0 1 1.7 1.9 2.16 2.16 0 0 1-2 2.1z"/><path class="cls-9" d="m596.6 181.76-9.8-0.1a1.8 1.8 0 0 1-1.7-1.9 2.14 2.14 0 0 1 2-1.9l9.8 0.1a1.74 1.74 0 0 1 1.7 1.9 2.05 2.05 0 0 1-2 1.9z"/><path class="cls-9" d="m594.5 209.56-9.8-0.5a1.83 1.83 0 0 1-1.7-2 1.88 1.88 0 0 1 1.9-1.8l9.8 0.4a1.77 1.77 0 0 1 1.7 2 1.9 1.9 0 0 1-1.9 1.9z"/><path class="cls-10" d="m617.3 169.46-29.2 0.1a2.1 2.1 0 0 1-2.1-2.3l0.9-12.7a2.05 2.05 0 0 1 2-1.9l29.3-0.8a2.1 2.1 0 0 1 2.1 2.3l-1 13.3a2 2 0 0 1-2 2z"/><path class="cls-7" d="m595.9 198.86-10-0.4a2.08 2.08 0 0 1-2-2.3l0.6-7.6a2 2 0 0 1 2.1-1.9l10.1 0.2a2.22 2.22 0 0 1 2.1 2.3l-0.6 7.8a2.28 2.28 0 0 1-2.3 1.9z"/><path class="cls-11" d="m614.9 199.46-10.7-0.4a2.08 2.08 0 0 1-2-2.3l0.6-7.9a2 2 0 0 1 2.1-1.9l10.8 0.2a2.22 2.22 0 0 1 2.1 2.3l-0.6 8.1a2.26 2.26 0 0 1-2.3 1.9z"/><path class="cls-8" d="m375.5 96.365-32.5 1.5a4 4 0 0 1-4.1-4.7l5.4-54a6.38 6.38 0 0 1 5.2-5.6l33.1-4.3c2.9-0.4 4.9 1.7 4.6 4.6l-6.1 57.1a6.18 6.18 0 0 1-5.6 5.4z"/><path class="cls-8" d="m373.1 95.265-32.5 1.5a4 4 0 0 1-4.1-4.7l5.4-54a6.38 6.38 0 0 1 5.2-5.6l33.1-4.3c2.9-0.4 4.9 1.7 4.6 4.6l-6.1 57.1a6.08 6.08 0 0 1-5.6 5.4z"/><path class="cls-11" d="m374.6 46.365-25.3 2.7a1.27 1.27 0 0 1-1.4-1.4l0.6-6.2a1.18 1.18 0 0 1 1.1-1.1l25.4-3a1.27 1.27 0 0 1 1.4 1.4l-0.7 6.5a1.11 1.11 0 0 1-1.1 1.1z"/><path class="cls-10" d="m351.1 63.565-3.3 0.3a1.27 1.27 0 0 1-1.4-1.4l0.4-3.6a1.18 1.18 0 0 1 1.1-1.1l3.3-0.3a1.27 1.27 0 0 1 1.4 1.4l-0.4 3.6a1.18 1.18 0 0 1-1.1 1.1z"/><path class="cls-10" d="m373 61.665-3.6 0.3a1.27 1.27 0 0 1-1.4-1.4l0.4-3.8a1.18 1.18 0 0 1 1.1-1.1l3.6-0.4a1.27 1.27 0 0 1 1.4 1.4l-0.4 3.8a1.28 1.28 0 0 1-1.1 1.2z"/><path class="cls-10" d="m361.9 62.565-3.4 0.3a1.27 1.27 0 0 1-1.4-1.4l0.4-3.7a1.18 1.18 0 0 1 1.1-1.1l3.4-0.3a1.27 1.27 0 0 1 1.4 1.4l-0.4 3.7a1.11 1.11 0 0 1-1.1 1.1z"/><path class="cls-10" d="m349.8 75.865-3.3 0.2a1.31 1.31 0 0 1-1.4-1.4l0.4-3.6a1.28 1.28 0 0 1 1.2-1.1l3.3-0.3a1.27 1.27 0 0 1 1.4 1.4l-0.4 3.6a1.29 1.29 0 0 1-1.2 1.2z"/><path class="cls-10" d="m371.7 74.365-3.6 0.3a1.31 1.31 0 0 1-1.4-1.4l0.4-3.7a1.28 1.28 0 0 1 1.2-1.1l3.6-0.3a1.27 1.27 0 0 1 1.4 1.4l-0.4 3.8a1.57 1.57 0 0 1-1.2 1z"/><path class="cls-10" d="m360.6 75.165-3.4 0.2a1.31 1.31 0 0 1-1.4-1.4l0.4-3.7a1.28 1.28 0 0 1 1.2-1.1l3.4-0.3a1.27 1.27 0 0 1 1.4 1.4l-0.4 3.7a1.49 1.49 0 0 1-1.2 1.2z"/><path class="cls-10" d="m348.5 88.165-3.2 0.2a1.24 1.24 0 0 1-1.3-1.4l0.4-3.6a1.28 1.28 0 0 1 1.2-1.1l3.2-0.2a1.19 1.19 0 0 1 1.3 1.4l-0.4 3.6a1.2 1.2 0 0 1-1.2 1.1z"/><path class="cls-7" d="m370.3 86.965-3.6 0.2a1.24 1.24 0 0 1-1.3-1.4l0.4-3.7a1.28 1.28 0 0 1 1.2-1.1l3.6-0.2a1.19 1.19 0 0 1 1.3 1.4l-0.4 3.8a1.29 1.29 0 0 1-1.2 1z"/><path class="cls-7" d="m359.3 87.565-3.4 0.2a1.24 1.24 0 0 1-1.3-1.4l0.4-3.6a1.28 1.28 0 0 1 1.2-1.1l3.4-0.2a1.19 1.19 0 0 1 1.3 1.4l-0.4 3.7a1.29 1.29 0 0 1-1.2 1z"/><path class="cls-6" d="m407 95.765 156.6-16.2a4.65 4.65 0 0 1 5.1 5l-13.4 152.4a7 7 0 0 1-7.3 6.4l-152.1-8.2a4.68 4.68 0 0 1-4.4-4.9l9.2-127.9a7.15 7.15 0 0 1 6.3-6.6z"/><path class="cls-7" d="m401.3 94.065 158.4-16.4a4.63 4.63 0 0 1 5.1 5.1l-13.5 154.1a6.93 6.93 0 0 1-7.4 6.4l-153.9-8.3a4.64 4.64 0 0 1-4.4-5l9.3-129.4a7.33 7.33 0 0 1 6.4-6.5z"/><polygon class="cls-12" transform="translate(-111.7 -121.44)" points="522.2 249.1 521.3 262.5 528.4 262.3 529.4 248.7"/><polygon class="cls-10" transform="translate(-111.7 -121.44)" points="520.8 269.1 527.9 268.9 528.4 262.3 521.3 262.5"/><polygon class="cls-12" transform="translate(-111.7 -121.44)" points="537.7 231 536.5 248.3 543.6 248 544.9 230.5"/><polygon class="cls-10" transform="translate(-111.7 -121.44)" points="535 268.7 542.1 268.5 543.6 248 536.5 248.3"/><polygon class="cls-12" transform="translate(-111.7 -121.44)" points="550.7 247.6 557.8 247.2 558.6 236.3 551.5 236.8"/><polygon class="cls-10" transform="translate(-111.7 -121.44)" points="549.2 268.4 556.3 268.2 557.8 247.2 550.7 247.6"/><polygon class="cls-12" transform="translate(-111.7 -121.44)" points="564.9 246.8 564.4 254.4 571.5 254 572 246.4"/><polygon class="cls-10" transform="translate(-111.7 -121.44)" points="563.4 268 570.5 267.8 571.5 254 564.4 254.4"/><polygon class="cls-12" transform="translate(-111.7 -121.44)" points="586.2 245.7 585.7 253.2 578.6 253.6 579.1 246 580 234.8 587.1 234.3"/><polygon class="cls-10" transform="translate(-111.7 -121.44)" points="577.5 267.6 584.6 267.5 585.7 253.2 578.6 253.6"/><path class="cls-8" d="m532.5 104.66-12.7 20.1-11.1-15.1a27.35 27.35 0 0 1 15.2-6.3 19.74 19.74 0 0 1 8.6 1.3z"/><path class="cls-11" d="m542.4 123.16-22.6 1.6 12.7-20.1c7 2.8 11.1 9.8 9.9 18.5z"/><path class="cls-10" d="m542.4 123.16c0 0.3-0.1 0.6-0.1 0.9-2.1 11.9-13.2 21.8-24.9 22.7l2.4-22z"/><path class="cls-13" d="m519.8 124.76-2.4 22a12.1 12.1 0 0 1-1.9 0.1c-11.9 0-19.2-9.7-16.7-21.4a28.35 28.35 0 0 1 9.9-15.7z"/><path class="cls-12" d="m539.2 163.86-5.2 50.7-130.7-2.4 0.2-3.9 28.3-19.5a3.6 3.6 0 0 1 4.3 0.1l10.6 7.8a3.7 3.7 0 0 0 5.2-0.8l10.5-14a3.7 3.7 0 0 1 6 0.1l9.3 12.9a3.72 3.72 0 0 0 5.3 0.8 3.76 3.76 0 0 1 4.4-0.1l6.6 4.7a3.76 3.76 0 0 0 5.3-1l14.8-22.8a3.76 3.76 0 0 1 5.3-1l4.3 3.1a3.69 3.69 0 0 0 5.2-0.8z"/><path class="cls-13" d="m444.1 179.96h-5.7a0.91 0.91 0 0 0-0.7 0.3l-1.3 1.3a1 1 0 0 1-1.4 0l-1-1.3a0.91 0.91 0 0 0-0.7-0.3h-5.5a0.77 0.77 0 0 1-0.8-0.9l0.8-10.8a1.08 1.08 0 0 1 1-1l16.3-0.6a0.9 0.9 0 0 1 0.9 0.9l-0.9 11.3a1 1 0 0 1-1 1.1z"/><path class="cls-11" d="m497.5 185.36-5.7-0.1a0.91 0.91 0 0 0-0.7 0.3l-1.3 1.3a0.9 0.9 0 0 1-1.4-0.1l-1-1.3a0.91 0.91 0 0 0-0.7-0.3l-5.4-0.1c-0.5 0-0.8-0.4-0.8-1l0.8-10.9a1.07 1.07 0 0 1 0.9-1l16.3-0.4a0.92 0.92 0 0 1 0.9 1l-0.9 11.6a0.94 0.94 0 0 1-1 1z"/><path class="cls-8" d="m223.6 473.86c-0.4 1.3-1.3 6.5-2 11.3a41.74 41.74 0 0 1-22.1-2.7c0.5-5 1-10.2 1-10.2 0-2.8 23.9-0.8 23.1 1.6z"/><path class="cls-11" d="m221.6 485.06c-0.6 4.2-1.2 7.9-1.2 7.9s-2.7 6.3-9.5 6.3-12.3-5.7-12.2-8.1c0.1-1.1 0.4-4.9 0.8-8.8a41.48 41.48 0 0 0 22.1 2.7z"/><path class="cls-8" d="m198.8 489.26a42.12 42.12 0 0 0 3.1 3.1c1.1 1 4.5-2.1 9.3-1.5s6.3 2.5 6.3 2.5a8.54 8.54 0 0 0 3.1-1.3 22.58 22.58 0 0 0 1.5 7.3c1.5 3.9 9.1 15.3 9.1 17.5s-0.5 3.9-2.1 4.6-12.2 0.8-21.1 1-15.8 0.7-16.8-2.8 3.1-14.4 4.8-21.1 1.4-9.2 2.8-9.3z"/><path class="cls-14" d="m200.3 507.76s10.7-5.7 20.9 0"/><path class="cls-14" d="m202.3 502.16a31.1 31.1 0 0 1 17 0"/><path class="cls-8" d="m327.4 480.76c-11.4 3.9-23.2 1.5-23.1 1.6-0.4-5.6-0.9-11.5-0.9-11.5 1.5-3.5 23-5.1 23.2-3.6 0 0.8 0.4 7.4 0.8 13.5z"/><path class="cls-11" d="m328 491.36s-1.5 4.7-8 7.1-14.8-4.1-14.9-6c-0.1-0.8-0.4-5.4-0.8-10.1 0-0.1 11.7 2.3 23.1-1.6 0.3 5.5 0.6 10.6 0.6 10.6z"/><path class="cls-8" d="m304.9 491.06c-0.7 0-1.2 1-1.6 7.3s-2.4 20.2 0 22.3 50.3 1.5 55.8 1.1 8.5-4 6.8-6.4-13.5-6.8-23.9-13.8-12.9-8.5-14.1-10.2c0 0 0.6-5.7-2.5-4.8s-5.2 8.3-9.2 9.3-4.5-5.2-11.3-4.8z"/><path class="cls-14" d="m344.3 501.76s-2.7-0.8-8.8 5.7"/><path class="cls-14" d="m337.7 497.46s-4.8-0.2-10.3 6.9"/><line class="cls-15" x1="203.3" x2="203.9" y1="483.76" y2="479.76"/><line class="cls-15" x1="210.2" x2="210.8" y1="485.26" y2="481.26"/><line class="cls-15" x1="217.8" x2="218.5" y1="485.56" y2="481.96"/><line class="cls-15" x1="308.8" x2="308.5" y1="482.86" y2="478.66"/><line class="cls-15" x1="317.1" x2="316.8" y1="482.76" y2="478.16"/><line class="cls-15" x1="324.6" x2="324.3" y1="481.56" y2="477.26"/><path class="cls-8" d="m196.6 249.96a124.2 124.2 0 0 0-2.8 24c-0.3 13.7 10.4 56.6 14.3 71.1s3.1 16.8 2.5 19.6-6.6 25-8.6 48-9.2 41.5-8.4 48.6c1.1 9.6 5.2 12.4 6.9 13.5s15.7 5.6 25.2 3.4c0 0 10.1-6.4 12-15.4s0.8-19.9 7.3-49.3 9.5-41.5 10.4-53.2c0.5-7 0.6-27 0.7-42.3 0.1-10.4 0.1-18.7 0.2-19.5 0.3-2 5.2 0.3 7.8-6.1 1.1-2.9 1.7-8.4 1.8-14.3 0.2-7.5-0.3-15.7-1.3-20.2-1.6-8.3-66.4-16.7-68-7.9z"/><path class="cls-8" d="m333.8 463.06c-1.7 4.2-4.8 9-7.6 10.1s-15.4 2.8-21.8 2.2c0 0-10.7-3.1-11.8-11.2s0.8-17.1-2.8-35.3-6.7-50.4-7.6-59.9-20.5-37.8-29.7-54.9-19.1-48.4-10.9-55.7 37.5-10.6 46.2-4.7c0 0 10.1 24.6 20.2 54 9.3 27 11.2 36.1 12.5 43.9a15.52 15.52 0 0 0 0.4 2.1c0.4 2.4 0.9 8.6 1.6 16.6 1.6 20.3 3.5 51.8 4.3 59 1.1 10 8.7 29.6 7 33.8z"/><path class="cls-15" d="m250.7 299.96a126.22 126.22 0 0 1 20-5.4"/><ellipse class="cls-16" transform="rotate(-78.465)" cx="-314.71" cy="306.35" rx="13.403" ry="13.203"/><path class="cls-15" d="m322.5 370.16a13 13 0 0 1-10.2 4.9 13.3 13.3 0 0 1-0.1-26.6 13 13 0 0 1 8.3 3"/><path class="cls-15" d="m198.9 297.26a34.72 34.72 0 0 0 11.2-25.6 82.88 82.88 0 0 1-11.2-1.4"/><path class="cls-15" d="m256.1 317.96c0.1-10.4 0.1-18.7 0.2-19.5 0.3-2 5.2 0.3 7.8-6.1 1.1-2.9 1.7-8.4 1.8-14.3"/><path class="cls-12" d="m285.6 135.46s8.2 0.4 21.4 26.8 17.9 35.9 17.9 35.9 8.7-2.1 22.9-4.4 34.2-5.2 34.2-5.2 5.4 0.1 7.7 7.8a12.16 12.16 0 0 1-2.4 11.4 4.5 4.5 0 0 1-1.9 1.4c-6.1 2.6-41.7 17.6-53.8 20.2-13.3 2.8-19.8 2.4-31.6-13.8s-21.1-28.8-25.4-35.3c-4.3-6.8-7.4-43.8 11-44.8z"/><path class="cls-17" d="m308.1 224.76s-0.7-5.3 9.6-5.3 15.6 7.7 13.1 9.9"/><path class="cls-17" d="m324.9 198.06s-4.3 2-5.2 5"/><path class="cls-11" d="m382.5 189.36s4.4-1.6 5.5-2.2 3.5-4.8 5.5-7.4 7.7-4.1 9.3-3.8a3.28 3.28 0 0 1 2.2 1.3s5-1.8 8.4-3.2 9.7-4.5 10.6-2c0.5 1.5-3.4 3.7-6.1 5.2-3.3 1.9-5.5 3.3-5.5 3.3a4.19 4.19 0 0 1 2 2.9c0.4 2.1 1.5 4.4-0.5 7.6-0.6 0.9 1.7 3.4-0.1 5.7-3.1 3.7-10.6 5.6-14.6 6.8s-13.4 1.8-13.4 1.8-3-0.7-4.3-7.2 1-8.8 1-8.8z"/><path class="cls-18" d="m405 177.26s0.7 1.8 1.5 4.5 1.4 4.8-0.7 4.9-4-3.1-4.8-4.7"/><path class="cls-18" d="m402.4 184.26s2.3 4.6-3 8.6"/><line class="cls-18" x1="412.5" x2="406.9" y1="180.56" y2="183.16"/><path class="cls-18" d="m404.1 186.06s-1 1.6 0 2.5 6.5-1.1 10.5-3.4"/><path class="cls-18" d="m405 188.76a2.06 2.06 0 0 0-0.9 2.7c0.8 1.8 5.1 1.1 9.8-0.4"/><path class="cls-18" d="m405.9 192.56s-2.5 0.3-1.2 2.8c0.8 1.5 5.6 1 6.6 1.4"/><path class="cls-17" d="m376.7 190.26c-0.8 1.4-1.8 4.1-1.1 8.9a13.89 13.89 0 0 0 6.2 10.3"/><path class="cls-11" d="m253.2 98.865s-3.2 16.1-5 20.5 8 11.3 17.8 11.7 8.8-5.3 8.8-5.3l2.9-16c0 0.1-21-14.6-24.5-10.9z"/><path class="cls-19" d="m257.6 103.66c-1.4 12.2 7.4 18.1 17.2 22.7v-0.6l1.6-8.5c-7.3-2.4-13.7-7.6-18.8-13.6z"/><path class="cls-7" d="m211.2 131.16c2.2-6.5 10.6-10.4 17.4-9.8 7 0.6 20.4 0.8 33.3 4.8 22 6.8 27.3 10.8 28.6 12 7.3 7 6.6 17.4 2.4 46.1-2.7 18.9-5 23.7-4.4 33s2.3 25.8 3.4 29.2-1.7 9.3-4.1 11.4-21.8 6.5-39.8 6.1-46.3-5.3-50.8-8.3-7.7-8.2-6.7-12.7a200.52 200.52 0 0 1 4.8-20.4c2.8-9.5 3-21.9 7.4-41.8 3.4-14.7 3.9-36 8.5-49.6z"/><g class="cls-20" transform="translate(-111.7 -121.44)" clip-path="url(#clip-path-2)"><ellipse class="cls-6" transform="rotate(-26.58 402.86 228.98)" cx="402.81" cy="228.98" rx="4.9" ry="2.4"/><ellipse class="cls-6" transform="rotate(-26.58 419.36 240.21)" cx="419.31" cy="240.2" rx="4.9" ry="2.4"/><ellipse class="cls-6" transform="rotate(-26.58 382.68 239.12)" cx="382.62" cy="239.1" rx="4.9" ry="2.4"/><ellipse class="cls-6" transform="rotate(-26.58 399.26 250.3)" cx="399.21" cy="250.28" rx="4.9" ry="2.4"/><ellipse class="cls-6" transform="rotate(-26.58 418.07 259.4)" cx="418.01" cy="259.38" rx="4.9" ry="2.4"/><ellipse class="cls-6" transform="rotate(-26.58 434.57 270.62)" cx="434.51" cy="270.6" rx="4.9" ry="2.4"/><ellipse class="cls-6" transform="rotate(-26.58 397.89 269.53)" cx="397.83" cy="269.5" rx="4.9" ry="2.4"/><ellipse class="cls-6" transform="rotate(-26.58 414.47 280.69)" cx="414.42" cy="280.68" rx="4.9" ry="2.4"/><ellipse class="cls-6" transform="rotate(-26.58 362.57 249.19)" cx="362.53" cy="249.18" rx="4.9" ry="2.4"/><ellipse class="cls-6" transform="rotate(-26.58 379.08 260.42)" cx="379.03" cy="260.4" rx="4.9" ry="2.4"/><ellipse class="cls-6" transform="rotate(-26.58 342.35 259.23)" cx="342.3" cy="259.21" rx="4.9" ry="2.4"/><ellipse class="cls-6" transform="rotate(-26.58 358.93 270.41)" cx="358.89" cy="270.39" rx="4.9" ry="2.4"/><ellipse class="cls-6" transform="rotate(-26.58 377.74 279.53)" cx="377.69" cy="279.49" rx="4.9" ry="2.4"/><ellipse class="cls-6" transform="rotate(-26.58 394.29 290.83)" cx="394.23" cy="290.81" rx="4.9" ry="2.4"/><ellipse class="cls-6" transform="rotate(-26.58 357.56 289.64)" cx="357.5" cy="289.62" rx="4.9" ry="2.4"/><ellipse class="cls-6" transform="rotate(-26.58 374.14 300.82)" cx="374.09" cy="300.8" rx="4.9" ry="2.4"/><ellipse class="cls-6" transform="rotate(-26.58 433.68 290.59)" cx="433.62" cy="290.58" rx="4.9" ry="2.4"/><ellipse class="cls-6" transform="rotate(-26.58 450.18 301.82)" cx="450.13" cy="301.8" rx="4.9" ry="2.4"/><ellipse class="cls-6" transform="rotate(-26.58 413.45 300.63)" cx="413.39" cy="300.61" rx="4.9" ry="2.4"/><ellipse class="cls-6" transform="rotate(-26.58 430.05 311.82)" cx="429.99" cy="311.79" rx="4.9" ry="2.4"/><ellipse class="cls-6" transform="rotate(-26.58 448.89 321)" cx="448.83" cy="320.98" rx="4.9" ry="2.4"/><ellipse class="cls-6" transform="rotate(-26.58 465.39 332.23)" cx="465.33" cy="332.2" rx="4.9" ry="2.4"/><ellipse class="cls-6" transform="rotate(-26.58 428.66 331.04)" cx="428.6" cy="331.01" rx="4.9" ry="2.4"/><ellipse class="cls-6" transform="rotate(-26.58 445.24 342.22)" cx="445.19" cy="342.19" rx="4.9" ry="2.4"/><ellipse class="cls-6" transform="rotate(-26.58 393.34 310.72)" cx="393.3" cy="310.69" rx="4.9" ry="2.4"/><ellipse class="cls-6" transform="rotate(-26.58 409.85 321.93)" cx="409.8" cy="321.91" rx="4.9" ry="2.4"/><ellipse class="cls-6" transform="rotate(-26.58 373.16 320.84)" cx="373.11" cy="320.81" rx="4.9" ry="2.4"/><ellipse class="cls-6" transform="rotate(-26.58 389.76 332.03)" cx="389.71" cy="331.99" rx="4.9" ry="2.4"/><ellipse class="cls-6" transform="rotate(-26.58 408.56 341.11)" cx="408.5" cy="341.09" rx="4.9" ry="2.4"/><ellipse class="cls-6" transform="rotate(-26.58 425.06 352.34)" cx="425.01" cy="352.32" rx="4.9" ry="2.4"/><ellipse class="cls-6" transform="rotate(-26.58 404.95 362.43)" cx="404.91" cy="362.39" rx="4.9" ry="2.4"/><ellipse class="cls-6" transform="rotate(-26.58 322.04 269.41)" cx="322" cy="269.39" rx="4.9" ry="2.4"/><ellipse class="cls-6" transform="rotate(-26.58 338.54 280.64)" cx="338.51" cy="280.62" rx="4.9" ry="2.4"/><ellipse class="cls-6" transform="rotate(-26.58 301.96 279.5)" cx="301.91" cy="279.47" rx="4.9" ry="2.4"/><ellipse class="cls-6" transform="rotate(-26.58 318.46 290.71)" cx="318.41" cy="290.7" rx="4.9" ry="2.4"/><ellipse class="cls-6" transform="rotate(-26.58 337.25 299.82)" cx="337.21" cy="299.8" rx="4.9" ry="2.4"/><ellipse class="cls-6" transform="rotate(-26.58 353.85 311.01)" cx="353.8" cy="310.98" rx="4.9" ry="2.4"/><ellipse class="cls-6" transform="rotate(-26.58 317.15 309.89)" cx="317.11" cy="309.88" rx="4.9" ry="2.4"/><ellipse class="cls-6" transform="rotate(-26.58 333.65 321.12)" cx="333.61" cy="321.1" rx="4.9" ry="2.4"/><ellipse class="cls-6" transform="rotate(-26.58 281.76 289.62)" cx="281.72" cy="289.6" rx="4.9" ry="2.4"/><ellipse class="cls-6" transform="rotate(-26.58 298.36 300.8)" cx="298.32" cy="300.77" rx="4.9" ry="2.4"/><ellipse class="cls-6" transform="rotate(-26.58 261.63 299.61)" cx="261.58" cy="299.59" rx="4.9" ry="2.4"/><ellipse class="cls-6" transform="rotate(-26.58 278.18 310.92)" cx="278.13" cy="310.9" rx="4.9" ry="2.4"/><ellipse class="cls-6" transform="rotate(-26.58 296.97 320.03)" cx="296.93" cy="320" rx="4.9" ry="2.4"/><ellipse class="cls-6" transform="rotate(-26.58 313.57 331.21)" cx="313.52" cy="331.18" rx="4.9" ry="2.4"/><ellipse class="cls-6" transform="rotate(-26.58 276.82 330.02)" cx="276.79" cy="329.99" rx="4.9" ry="2.4"/><ellipse class="cls-6" transform="rotate(-26.58 293.34 341.25)" cx="293.29" cy="341.21" rx="4.9" ry="2.4"/><ellipse class="cls-6" transform="rotate(-26.58 332.78 341.09)" cx="332.73" cy="341.07" rx="4.9" ry="2.4"/><ellipse class="cls-6" transform="rotate(-26.58 384.67 372.61)" cx="384.62" cy="372.58" rx="4.9" ry="2.4"/><ellipse class="cls-6" transform="rotate(-26.58 347.94 371.43)" cx="347.88" cy="371.39" rx="4.9" ry="2.4"/><ellipse class="cls-6" transform="rotate(-26.58 364.49 382.73)" cx="364.43" cy="382.7" rx="4.9" ry="2.4"/><ellipse class="cls-6" transform="rotate(-26.58 312.55 351.13)" cx="312.5" cy="351.11" rx="4.9" ry="2.4"/><ellipse class="cls-6" transform="rotate(-26.58 329.13 362.31)" cx="329.09" cy="362.28" rx="4.9" ry="2.4"/><ellipse class="cls-6" transform="rotate(-26.58 292.44 361.22)" cx="292.4" cy="361.19" rx="4.9" ry="2.4"/><ellipse class="cls-6" transform="rotate(-26.58 308.94 372.45)" cx="308.9" cy="372.41" rx="4.9" ry="2.4"/><ellipse class="cls-6" transform="rotate(-26.58 327.74 381.54)" cx="327.7" cy="381.51" rx="4.9" ry="2.4"/><ellipse class="cls-6" transform="rotate(-26.58 344.34 392.72)" cx="344.29" cy="392.69" rx="4.9" ry="2.4"/><ellipse class="cls-6" transform="rotate(-26.58 307.65 391.63)" cx="307.6" cy="391.59" rx="4.9" ry="2.4"/><ellipse class="cls-6" transform="rotate(-26.58 324.16 402.84)" cx="324.11" cy="402.81" rx="4.9" ry="2.4"/></g><path class="cls-21" d="m238.7 204.46a183.07 183.07 0 0 0 33.8 3.9 3.11 3.11 0 0 1 3 2.7 19.84 19.84 0 0 0 5.1 10.8 2.79 2.79 0 0 1 0.8 2c0.1 4.2 0.3 18.4-2.5 20.6-3.2 2.4-37.2 4.6-58.3-1.3a3.19 3.19 0 0 1-2.4-3c0.1-4.1 0.3-12.7 1-18.1a3.47 3.47 0 0 1 1.9-2.5c3.3-1.5 10.9-5.5 13.6-13a3.57 3.57 0 0 1 4-2.1z"/><path class="cls-12" d="m246.9 116.96a1.57 1.57 0 0 1 2.5-0.5c1.9 2 6 5 13.4 6.4 11.3 2.1 12.4 0.4 12.4 0.4s1.8 0.6 2 2.1a26.91 26.91 0 0 1-0.8 7.2c-0.6 1.9-9 2.1-15.7 0.7a30.38 30.38 0 0 1-15.7-8.1 2.3 2.3 0 0 1-0.5-2.6c0.6-1.5 1.6-3.7 2.4-5.6z"/><path class="cls-11" d="m296.2 79.865a35.58 35.58 0 0 1-2 12.6c-2 5.2-5.3 19.7-11.8 24.4s-20.7 3.8-26.9-8.3c-6.2-12.1-4.2-24.8-1-35s16.4-13.9 27.9-9.7 13.8 11.5 13.8 16z"/><path class="cls-8" d="m254.2 86.865a13.91 13.91 0 0 1 1.7 2.9c0.9 2.1 2.8 0.9 3.5-2.9s2.3-6.5 3.5-6.3a7 7 0 0 0 7.9-3.7c2.5-4.6 3.6-3.9 3.6-3.9s2-4.8 7.2 2.1 8.5 12.3 14.7 11.2 11.7-11.2 7-20.9-19.5-12-30.5-9.1-16.7 0.5-23.3 6.1-5 11.5-5.4 18.1-3.8 10.1 0.7 16c4.5 5.9 3.3 11.4 5.8 14.7 0 0 2.7-8.7 2.4-15-0.3-6.3 1.2-9.3 1.2-9.3z"/><path class="cls-17" d="m283.9 92.365a9.78 9.78 0 0 1-9.6 9.5 9.38 9.38 0 0 1-9.3-9.7 9.84 9.84 0 0 1 9.8-9.9 9.5 9.5 0 0 1 9.1 10.1z"/><ellipse class="cls-22" transform="rotate(-73.76)" cx="-10.656" cy="308.57" rx="9" ry="6.3"/><path class="cls-17" d="m287.4 94.465s-0.1-2-3.6-0.9"/><line class="cls-17" x1="265.8" x2="254.2" y1="88.065" y2="85.965"/><path class="cls-11" d="m255.2 88.665s-0.9-5.3-5.2-5.4-6.9 13.1 3.8 14.9"/><path class="cls-8" d="m249.3 87.365a2.53 2.53 0 0 1 2.7 1 3.29 3.29 0 0 1 0.4 1.7c0 0.3-0.1 0.5-0.1 0.8s-0.1 0.4-0.1 0.6a3.75 3.75 0 0 0-0.1 1 0.84 0.84 0 0 0 0.2 0.7 6.21 6.21 0 0 0 1.9 1.4 3.36 3.36 0 0 1-2.9-0.3 2.37 2.37 0 0 1-0.9-1.5 4.19 4.19 0 0 1 0.1-1.6c0.1-0.2 0.1-0.5 0.2-0.7s0.1-0.3 0.1-0.5a1.1 1.1 0 0 0 0-0.8 2.85 2.85 0 0 0-1.5-1.8z"/><path class="cls-8" d="m286 92.865a11.38 11.38 0 0 0 0.7 3.3 5.39 5.39 0 0 0 0.7 1.3 4.47 4.47 0 0 1 0.9 1.7 4.7 4.7 0 0 1-0.8 3.9 4.36 4.36 0 0 1-1.4 1.3 2.9 2.9 0 0 1-1.8 0.5 5.35 5.35 0 0 0 1.9-2.6 4.3 4.3 0 0 0 0.3-2.7 5.73 5.73 0 0 0-0.7-1.3 6 6 0 0 1-0.6-1.9 6.94 6.94 0 0 1 0.8-3.5z"/><path class="cls-17" d="m276 108.76a7.57 7.57 0 0 1-6.6-4.4"/><path class="cls-8" d="m271.9 94.265a1.49 1.49 0 0 1-1.1-1.8l0.4-1.5a1.49 1.49 0 0 1 1.8-1.1 1.49 1.49 0 0 1 1.1 1.8l-0.4 1.5a1.49 1.49 0 0 1-1.8 1.1z"/><path class="cls-8" d="m287.8 98.365a1.49 1.49 0 0 1-1.1-1.8l0.4-1.5a1.49 1.49 0 0 1 1.8-1.1 1.49 1.49 0 0 1 1.1 1.8l-0.4 1.5a1.49 1.49 0 0 1-1.8 1.1z"/><path class="cls-8" d="m275.9 87.365c-1.1 0.2-1.6-1.3-3.2-1.2-2.5 0.1-3.9 0.6-4.1-0.5-0.1-0.8 1.8-2.3 4.2-2.4 3.5 0 5.1 3.8 3.1 4.1z"/><path class="cls-8" d="m287.8 90.365c0.7 0.6 1.7-0.5 2.7 0.2 1.5 0.9 2 1.7 2.5 1s0-2.4-1.4-3.3c-2.3-1.6-5.3 1-3.8 2.1z"/><path class="cls-11" d="m161.8 257.56a14.54 14.54 0 0 0-1.3 4.5c0 1.7 1.4 17.4 1 20.5s-1.4 9.2-2 10.1-4.2-1.9-4.3-11.3-3.3-22.3-0.6-23.8 6.4-1.2 7.2 0z"/><path class="cls-8" d="m96.301 303.96 24-37.8a3.72 3.72 0 0 1 5.2-1.1l56.5 35.9a3.72 3.72 0 0 1 1.1 5.2l-24 37.8a3.72 3.72 0 0 1-5.2 1.1l-56.5-35.9a3.81 3.81 0 0 1-1.1-5.2z"/><path class="cls-12" d="m162.6 332.86 12-18.8a1.45 1.45 0 0 1 2.4-0.1l1.9 2.5a1.5 1.5 0 0 1 0.1 1.7l-10.8 17a1.29 1.29 0 0 1-1.5 0.6l-3.1-0.6a1.6 1.6 0 0 1-0.99999-2.3z"/><path class="cls-11" d="m159.1 256.56s-0.6 17.4-0.7 21.1 0.1 11-0.8 14.5-2.4 12.3-5.1 12.9 0.2-10.8 0.2-13a52.85 52.85 0 0 0-1.2-7.5s-1 5.5-1.7 7.9-5.3 9.9-7.1 9.6 0.4-5.9 1.8-9.3c1.3-3.1 1.8-9.6 1.8-9.6a51.87 51.87 0 0 1-2.7 5.8c-1.2 2-5.3 8.2-7 7.9s1.1-6.6 2.8-9.5a12.11 12.11 0 0 0 1.8-5s-2.7 2.7-4.4 4-7.7 4.2-8.2 2.7 2.2-3.1 4.7-5.4 5.2-6.9 5.8-7.7-1.1-7.8 1.6-12.5 4.3-6.6 5-9.8 13.1 0.6 13.4 2.9z"/><path class="cls-12" d="m221.6 121.36s-11.4-1.1-25.1 16.1-27.2 31.6-31 38.4c-3.8 6.8-12.2 32.3-16.4 52.4s-4.6 23.7-4.5 25.9c0.1 2 10.2 4.8 16.8 4.7a2.84 2.84 0 0 0 2.7-1.8c2.6-6.1 11.7-26.9 15.3-34.5 4.2-8.9 9.1-22.1 9.7-23s27.9-28.7 33-36 10-19.1 8.9-29.5c-1.2-11.3-7-12.8-9.4-12.7z"/><path class="cls-17" d="m166.9 173.56s3.1-4.3 7-0.4c4.1 4.1 2.3 13-3.4 18.6-4.7 4.6-11.4 2.7-10.8-1.6"/><path class="cls-17" d="m146 249.36c2.7 1.3 10.8 4.9 18.7 3.9"/><path class="cls-8" d="m407.8 277.76 16.8-55a3.66 3.66 0 0 1 3.5-2.5l99.4 2.8a2.52 2.52 0 0 1 2.4 3.2l-19.5 67.1a3.51 3.51 0 0 1-3.9 2.5l-96.5-14.9a2.45 2.45 0 0 1-2.2-3.2z"/><path class="cls-9" d="m406.9 280.56-57.8 5.4 99.1 24.4a15 15 0 0 0 7.3 0l53.8-13.9z"/><path class="cls-8" d="m448.3 310.36-99.1-24.4a4.17 4.17 0 0 0 3.1 4l93.4 24.8a22.24 22.24 0 0 0 12-0.2l49-14.4a3.87 3.87 0 0 0 2.8-3.8l-53.8 13.9a14.32 14.32 0 0 1-7.4 0.1z"/><path class="cls-13" d="m473.1 232.46-7 23.8a1.5 1.5 0 0 1-1.4 1l-39.3-3.4a1.35 1.35 0 0 1-1.2-1.7l6.6-21.8a1.38 1.38 0 0 1 1.3-1l39.7 1.4a1.38 1.38 0 0 1 1.3 1.7z"/><polygon class="cls-11" transform="translate(-111.7 -121.44)" points="572.9 372.5 542.3 370.3 543.4 367.1 554.7 362.1 561.1 367.1 577.3 358.2"/><path class="cls-7" d="m442.7 265.96-2.9 9a1.35 1.35 0 0 1-1.5 0.9l-18.9-2.5a1.29 1.29 0 0 1-1.1-1.7l2.5-8.4a1.5 1.5 0 0 1 1.4-1l19.3 2a1.24 1.24 0 0 1 1.2 1.7z"/><path class="cls-12" d="m472.3 268.96-3.2 9.9a1.35 1.35 0 0 1-1.5 0.9l-18-2.4a1.35 1.35 0 0 1-1.1-1.8l3-9.3a1.3 1.3 0 0 1 1.4-0.9l18.2 1.8a1.35 1.35 0 0 1 1.2 1.8z"/><path class="cls-11" d="m506.3 272.36-3.4 11a1.35 1.35 0 0 1-1.5 0.9l-21.7-2.9a1.35 1.35 0 0 1-1.1-1.8l3.3-10.3a1.3 1.3 0 0 1 1.4-0.9l21.7 2.2a1.39 1.39 0 0 1 1.3 1.8z"/><path class="cls-7" d="m494.6 237.26a6.85 6.85 0 0 1-6.8 5.1c-2.9-0.2-4.4-2.7-3.6-5.5a6.86 6.86 0 0 1 6.3-4.7 4.07 4.07 0 0 1 4.1 5.1z"/><line class="cls-15" x1="501.7" x2="516.3" y1="233.96" y2="234.46"/><line class="cls-15" x1="478.9" x2="510.2" y1="252.96" y2="255.16"/><line class="cls-15" x1="500" x2="514.6" y1="239.86" y2="240.46"/><path class="cls-12" d="m580.1 90.465-76 5.9a3.2 3.2 0 0 1-3.4-3.4l3.2-43.9a5.54 5.54 0 0 1 4.8-5.1l77.2-10.5a3.21 3.21 0 0 1 3.6 3.4l-4.3 48.6a5.65 5.65 0 0 1-5.1 5z"/><path class="cls-10" d="m577.6 88.865-76 5.9a3.2 3.2 0 0 1-3.4-3.4l3.2-43.9a5.54 5.54 0 0 1 4.8-5.1l77.2-10.5a3.21 3.21 0 0 1 3.6 3.4l-4.3 48.6a5.47 5.47 0 0 1-5.1 5z"/><path class="cls-8" d="m527 59.465a6.7 6.7 0 0 1-5.7 6 4.28 4.28 0 0 1-4.8-4.8 6.6 6.6 0 0 1 5.6-6c3-0.4 5.1 1.8 4.9 4.8z"/><path class="cls-8" d="m525.5 78.565-10.4 1a3.46 3.46 0 0 1-3.8-3.9 12 12 0 0 1 10.1-10.7c5.2-0.6 9.2 3.4 8.7 8.9a5.31 5.31 0 0 1-4.6 4.7z"/><line class="cls-15" x1="539.3" x2="571.7" y1="54.065" y2="50.265"/><line class="cls-15" x1="538.5" x2="570.9" y1="62.965" y2="59.465"/><line class="cls-15" x1="537.8" x2="557.3" y1="71.865" y2="69.965"/><path class="cls-6" d="m493.9 12.465c-3.9-3.9-9.4-6.2-16.2-7a24.2 24.2 0 0 0-13.3 1.8c-4.8 2.1-8.4 5.8-11.1 11.2l-4.5 1.9 2.6 2.7 11.7 2.1a16.46 16.46 0 0 1 4.1-6.7c2-2 4.7-2.8 8.1-2.3s5.7 1.8 6.6 3.9a9.63 9.63 0 0 1 0.3 6.7 11.27 11.27 0 0 1-3.4 5.3 13.25 13.25 0 0 1-3.4 2.2l-4 2c-3.9 1.9-6.5 3.7-7.8 5.5a29.28 29.28 0 0 0-3.1 6.4l-4 1.3 2.6 2.7 12 3.3a20.45 20.45 0 0 1 2.2-5.5 11 11 0 0 1 5-4.2l4.1-1.9a41.18 41.18 0 0 0 9-5.2 18.61 18.61 0 0 0 6.1-10.1c1.7-6.6 0.5-12-3.6-16.1z"/><path class="cls-6" d="m463.3 59.365-0.4-0.1a6.7 6.7 0 0 0-8.2 5 7.28 7.28 0 0 0 4.3 9l0.4 0.2c3.6 1.2 7.4-1 8.5-5s-1-8.1-4.6-9.1z"/><path class="cls-7" d="m461.9 4.5649a26.18 26.18 0 0 1 13.3-1.8c6.8 0.8 12.2 3.1 16.2 7 4 3.9 5.3 9.5 3.5 16.3a19 19 0 0 1-6.1 10.1c-1.7 1.5-4.7 3.2-9 5.2l-4.1 1.9a11 11 0 0 0-5 4.2 26.69 26.69 0 0 0-2.2 5.5l-12-3.3c1.7-5.2 3.1-8.6 4.5-10.4s3.9-3.6 7.8-5.5l4-2a14.24 14.24 0 0 0 3.4-2.2 10.15 10.15 0 0 0 3.4-5.3 10.88 10.88 0 0 0-0.3-6.7c-0.8-2.1-3.1-3.4-6.6-3.9s-6.1 0.3-8.1 2.3a15.26 15.26 0 0 0-4.1 6.7l-11.7-2.1c2.8-8.1 7-13.3 13.1-16zm-1.3 53.2 0.4 0.1a7.26 7.26 0 0 1 4.6 9c-1.1 4-5 6.2-8.5 5l-0.4-0.2a7.28 7.28 0 0 1-4.3-9 6.76 6.76 0 0 1 8.2-4.9z"/><path class="cls-11" d="m189.8 66.265h38.4l3.9 2.5a1.88 1.88 0 0 0 2.9-1.6v-27.1a5 5 0 0 0-5-5h-40.2a5 5 0 0 0-5 5v21.2a5 5 0 0 0 5 5z"/><line class="cls-17" x1="222.6" x2="197" y1="43.965" y2="43.965"/><line class="cls-17" x1="222.6" x2="197" y1="50.965" y2="50.965"/><line class="cls-17" x1="222.6" x2="207.9" y1="57.965" y2="57.965"/></svg>
